<svg width="41" height="41" viewBox="0 0 41 41" fill="none" xmlns="http://www.w3.org/2000/svg">
<path d="M40.6323 16.6012L31.3172 0.500045H12.7292L14.2045 3.07117C14.8367 4.16706 15.9748 4.7993 17.2393 4.7993H28.8304L35.6165 16.559L28.8304 28.3188H17.745H15.2582L8.21924 40.5H11.2119C12.4763 40.5 13.6144 39.8256 14.2466 38.7719L17.745 32.7023H28.8304L32.3288 38.7719C32.961 39.8678 34.0991 40.5 35.3636 40.5H38.3562L32.5817 30.5527L40.6323 16.6012Z" fill="#020231"/>
<path d="M17.5342 16.6011L4.7629 38.7718C4.13066 39.8677 2.99262 40.5 1.72814 40.5H0L13.7829 16.6011L4.46786 0.5H6.19599C7.46047 0.5 8.59852 1.17439 9.23076 2.22813L17.5342 16.6011Z" fill="#0077B6"/>
</svg>
